<?xml version="1.0" standalone="no"?>
<!DOCTYPE svg PUBLIC "-//W3C//DTD SVG 20010904//EN"
 "http://www.w3.org/TR/2001/REC-SVG-20010904/DTD/svg10.dtd">
<svg version="1.0" xmlns="http://www.w3.org/2000/svg"
 width="154.000000pt" height="154.000000pt" viewBox="0 0 154.000000 154.000000"
 preserveAspectRatio="xMidYMid meet">
<metadata>
Created by potrace 1.11, written by Peter Selinger 2001-2013
</metadata>
<g transform="translate(0.000000,154.000000) scale(0.100000,-0.100000)"
fill="#000000" stroke="none">
<path d="M316 1528 c-94 -20 -146 -79 -150 -168 -6 -116 48 -176 197 -226 138
-45 160 -61 172 -121 12 -66 -42 -122 -122 -127 -62 -5 -107 7 -165 43 -27 17
-55 31 -62 31 -6 0 -20 -14 -30 -31 -18 -30 -18 -31 5 -55 55 -59 229 -87 342
-55 87 25 139 102 133 196 -8 110 -67 164 -236 216 -41 12 -85 29 -96 36 -33
21 -49 68 -38 110 20 79 122 103 222 52 72 -36 88 -36 106 0 14 26 14 30 -2
44 -53 48 -187 75 -276 55z"/>
<path d="M795 1521 l-30 -6 0 -345 0 -345 45 0 45 0 2 153 c1 85 4 156 7 159
4 4 280 7 327 3 3 0 6 -64 7 -142 0 -79 1 -151 1 -160 1 -14 10 -18 46 -18
l45 0 0 350 0 350 -22 1 c-30 2 -62 -2 -67 -7 -3 -2 -4 -67 -4 -144 0 -77 -2
-140 -6 -141 -3 -1 -79 -2 -168 -3 l-163 -1 -1 35 c0 19 -1 83 0 142 0 120 -6
130 -64 119z"/>
<path d="M351 724 c-152 -40 -233 -174 -226 -378 5 -128 49 -227 128 -283 58
-42 109 -56 197 -56 144 -1 241 57 296 175 27 59 29 71 29 188 0 116 -2 129
-28 185 -45 97 -112 154 -201 170 -66 13 -141 12 -195 -1z m194 -84 c86 -33
136 -143 130 -288 -7 -185 -86 -273 -237 -267 -80 4 -135 38 -174 107 -28 51
-29 58 -29 178 0 119 1 127 29 178 29 52 71 86 124 102 35 10 119 5 157 -10z"/>
<path d="M940 720 l-35 -5 0 -345 0 -345 45 0 45 0 0 136 0 137 135 4 c176 6
223 25 265 108 32 62 24 176 -16 232 -43 59 -119 79 -313 82 -50 0 -107 -1
-126 -4z m280 -90 c85 -16 126 -112 80 -188 -28 -45 -57 -54 -187 -57 -99 -3
-113 -1 -114 14 -1 17 0 220 0 234 1 10 160 8 221 -3z"/>
</g>
</svg>
